<?xml version="1.0" encoding="UTF-8"?>
<svg width="285px" height="160px" viewBox="0 0 285 160" version="1.1" xmlns="http://www.w3.org/2000/svg" xmlns:xlink="http://www.w3.org/1999/xlink">
    <title>LOGO</title>
    <g id="Page-1" stroke="none" stroke-width="1" fill="none" fill-rule="evenodd">
        <g id="Group" transform="translate(0.000000, 3.000000)">
            <g transform="translate(73.899059, 0.000000)" id="logo-Ohmunity">
                <g transform="translate(0.190254, 0.190534)">
                    <g id="Group" transform="translate(7.809342, 21.763819)" fill="#849B82">
                        <path d="M89.4503527,28.9741678 C89.4503527,28.9741678 90.6584557,70.8779746 45.9457314,75.8080417 C45.9457314,75.8080417 43.5295255,33.2881235 89.4503527,28.9741678" id="Fill-1"></path>
                        <path d="M0.00318417784,28.9741678 C45.9240114,33.2881235 43.5078055,75.8080417 43.5078055,75.8080417 C-1.20609284,70.8779746 0.00318417784,28.9741678 0.00318417784,28.9741678" id="Fill-3"></path>
                        <path d="M73.3265808,11.6440354 C77.0318996,15.0455819 76.8182215,26.2708026 76.7595187,28.0450624 L76.7559965,28.1473557 C76.7524744,28.2355396 76.7513003,28.2813952 76.7513003,28.2813952 C45.9346953,39.1691657 44.7265923,64.8447859 44.7265923,64.8447859 C44.7265923,64.8447859 43.5173153,39.1691657 12.7018843,28.2813952 C12.7018843,28.2813952 12.7007103,28.2355396 12.6971881,28.1473557 L12.6936659,28.0450624 C12.6361372,26.2708026 12.4212851,15.0455819 16.1266038,11.6440354 C16.1266038,11.6440354 40.7207154,20.2707711 44.7265923,43.277359 C48.7336433,20.2707711 73.3265808,11.6440354 73.3265808,11.6440354" id="Fill-5"></path>
                        <path d="M44.7267097,35.5357544 C47.1429157,24.8549222 56.8605719,17.7684651 56.8605719,17.7684651 C56.8605719,17.7684651 53.5884796,5.75194093 44.7267097,2.16612057e-14 L44.7267097,2.16612057e-14 C35.8637658,5.75194093 32.5916736,17.7684651 32.5916736,17.7684651 C32.5916736,17.7684651 42.3093298,24.8549222 44.7267097,35.5357544" id="Fill-7"></path>
                    </g>
                    <path d="M52.59768,105.350349 C81.6461577,105.350349 105.19536,81.7664505 105.19536,52.6751745 C105.19536,23.5838984 81.6461577,0 52.59768,0 C23.5480283,0 0,23.5838984 0,52.6751745 C0,81.7664505 23.5480283,105.350349 52.59768,105.350349 Z" id="Stroke-10" stroke="#62726E" stroke-width="5.85478494"></path>
                </g>
            </g>
            <path d="M153.665572,126.833874 L153.698481,126.875458 L153.769182,126.962672 L153.769182,126.962672 L153.846392,127.05528 L153.846392,127.05528 L153.93011,127.153283 L153.93011,127.153283 L154.020338,127.25668 L154.020338,127.25668 L154.167883,127.421891 L154.167883,127.421891 L154.274383,127.538775 L154.274383,127.538775 L154.387392,127.661054 L154.387392,127.661054 L154.506909,127.788728 L154.506909,127.788728 L154.69839,127.990353 L154.69839,127.990353 L154.904516,128.204116 L154.904516,128.204116 L155.258727,128.566142 L155.258727,128.566142 L156.049306,129.367864 L156.049306,129.367864 L156.41683,129.738609 L156.41683,129.738609 L157.067644,130.392718 L157.657264,130.982507 L157.657264,130.982507 L157.996869,131.319941 L157.996869,131.319941 L158.521835,131.838335 L158.521835,131.838335 L159.065469,132.371419 L159.065469,132.371419 L159.627773,132.919193 L159.627773,132.919193 L160.208747,133.481658 L160.208747,133.481658 L163.394989,136.558632 C163.702053,136.855295 164.008085,137.150408 164.313085,137.44397 L165.224988,138.320004 C165.527923,138.610465 165.829827,138.899376 166.130698,139.186736 L166.970621,139.988473 L166.970621,139.988473 L167.351713,140.353805 L167.351713,140.353805 L167.907794,140.88956 L167.907794,140.88956 L168.268143,141.238568 L168.268143,141.238568 L168.793108,141.749839 L168.793108,141.749839 L169.299404,142.24642 L169.299404,142.24642 L169.722144,142.663957 L169.722144,142.663957 L170.21677,143.156273 L170.21677,143.156273 L170.568822,143.509555 L170.568822,143.509555 L170.794514,143.737479 L170.794514,143.737479 L171.224277,144.175093 L171.224277,144.175093 L171.625212,144.588395 L171.625212,144.588395 L171.858307,144.831534 L171.858307,144.831534 L172.052647,145.036791 L172.052647,145.036791 L172.232938,145.229854 L172.232938,145.229854 L172.399181,145.410724 L172.399181,145.410724 L172.551375,145.5794 L172.551375,145.5794 L172.645033,145.685077 L172.645033,145.685077 L172.732447,145.785334 L172.732447,145.785334 L172.851861,145.925559 L172.851861,145.925559 L172.923665,146.012268 L172.923665,146.012268 L172.989226,146.093558 L172.989226,146.093558 L173.048543,146.169428 L173.76924,147.233074 L173.655446,145.941504 L173.655446,128.125444 L177.789974,128.125444 L177.789974,156.919844 L177.729683,156.843481 L177.729683,156.843481 L177.663628,156.762234 L177.663628,156.762234 L177.55374,156.631207 L177.55374,156.631207 L177.473278,156.537751 L177.473278,156.537751 L177.387053,156.439411 L177.387053,156.439411 L177.246909,156.282745 L177.246909,156.282745 L177.093797,156.11509 L177.093797,156.11509 L176.927719,155.936447 L176.927719,155.936447 L176.748674,155.746815 L176.748674,155.746815 L176.556661,155.546196 L176.556661,155.546196 L176.421449,155.406344 L176.421449,155.406344 L176.207825,155.187411 L176.207825,155.187411 L175.902822,154.878406 L175.902822,154.878406 L172.251982,151.221744 C172.076655,151.046158 171.899866,150.869446 171.721616,150.691609 L170.90963,149.883745 L170.90963,149.883745 L170.357348,149.336728 L170.357348,149.336728 L169.7963,148.782957 L169.7963,148.782957 L169.226485,148.222433 L169.226485,148.222433 L168.647904,147.655155 L168.647904,147.655155 L167.237104,146.27649 L167.237104,146.27649 L166.430986,145.486546 L166.430986,145.486546 L165.642205,144.711293 L165.642205,144.711293 L164.870759,143.95073 L164.870759,143.95073 L164.116649,143.204858 L164.116649,143.204858 L163.665007,142.756846 L163.665007,142.756846 L163.264785,142.358341 L163.264785,142.358341 L162.599551,141.692234 L162.599551,141.692234 L162.283466,141.373932 L162.283466,141.373932 L161.67449,140.756982 L161.67449,140.756982 L161.096441,140.166239 L161.096441,140.166239 L160.6832,139.74038 L160.6832,139.74038 L160.189939,139.227308 L160.189939,139.227308 L159.905821,138.928145 L159.905821,138.928145 L159.707075,138.716755 L159.707075,138.716755 L159.520622,138.516493 L159.520622,138.516493 L159.291142,138.266786 L159.291142,138.266786 L159.133375,138.092489 L159.133375,138.092489 L158.987901,137.92932 L158.987901,137.92932 L158.85472,137.777279 L158.85472,137.777279 L158.733833,137.636365 L158.733833,137.636365 L158.660072,137.548605 L158.660072,137.548605 L158.591774,137.46579 L158.591774,137.46579 L158.499573,137.350842 L158.499573,137.350842 L158.444935,137.280392 L157.724237,136.292721 L157.838031,137.508316 L157.838031,155.666262 L153.665572,155.666262 L153.665572,126.833874 Z M14.0346364,127.821545 C15.9564965,127.821545 17.7708842,128.195087 19.4777994,128.942171 C21.1847146,129.689256 22.676685,130.708583 23.9537105,132.000152 C25.2307359,133.291721 26.2422413,134.792221 26.9882264,136.501651 C27.7342116,138.211081 28.1072042,140.01548 28.1072042,141.914847 C28.1072042,143.864863 27.7342116,145.688255 26.9882264,147.385023 C26.2422413,149.081791 25.2307359,150.569628 23.9537105,151.848535 C22.676685,153.127442 21.1847146,154.134106 19.4777994,154.868528 C17.7708842,155.60295 15.9564965,155.970161 14.0346364,155.970161 C12.0874886,155.970161 10.266779,155.60295 8.57250762,154.868528 C6.8782362,154.134106 5.39258776,153.127442 4.11556229,151.848535 C2.83853682,150.569628 1.8333534,149.081791 1.10001204,147.385023 C0.36667068,145.688255 -2.73570372e-14,143.864863 -2.73570372e-14,141.914847 C-2.73570372e-14,140.01548 0.36667068,138.211081 1.10001204,136.501651 C1.8333534,134.792221 2.83853682,133.291721 4.11556229,132.000152 C5.39258776,130.708583 6.8782362,129.689256 8.57250762,128.942171 C10.266779,128.195087 12.0874886,127.821545 14.0346364,127.821545 Z M122.788055,128.125444 L122.788055,145.827542 L122.78913,145.953693 C122.803465,146.791539 122.961154,147.566217 123.262198,148.277725 C123.578293,149.02481 124.020827,149.683257 124.589798,150.253067 C125.15877,150.822877 125.82257,151.266062 126.581199,151.582624 C127.339828,151.899185 128.17432,152.057465 129.084675,152.057465 C129.969742,152.057465 130.797912,151.899185 131.569185,151.582624 C132.340458,151.266062 133.01058,150.822877 133.579552,150.253067 C134.148524,149.683257 134.597379,149.02481 134.926118,148.277725 C135.239915,147.564599 135.403945,146.788017 135.418208,145.947979 L135.419227,145.827542 L135.419227,128.125444 L139.591687,128.125444 L139.591687,145.941504 L139.590781,146.092968 C139.573262,147.552428 139.301722,148.875815 138.776161,150.06313 C138.232476,151.291387 137.486491,152.34237 136.538205,153.216079 C135.589919,154.089788 134.477263,154.767229 133.200237,155.248401 C131.923212,155.729574 130.551358,155.970161 129.084675,155.970161 C127.617992,155.970161 126.25246,155.729574 124.988079,155.248401 C123.723697,154.767229 122.617363,154.089788 121.669077,153.216079 C120.720791,152.34237 119.974805,151.291387 119.431121,150.06313 C118.90556,148.875815 118.63402,147.552428 118.616501,146.092968 L118.615595,145.941504 L118.615595,128.125444 L122.788055,128.125444 Z M44.684565,128.125444 L44.684565,139.825543 L58.4536812,139.825543 L58.4536812,128.125444 L62.6261407,128.125444 L62.6261407,137.299385 L62.6257537,137.946721 C62.6244635,139.028197 62.6199478,140.122594 62.6122067,141.229912 L62.607175,141.895853 C62.5963374,143.230836 62.5901445,144.547214 62.5885963,145.844985 L62.5882093,146.492321 L62.5882093,155.666262 L58.4536812,155.666262 L58.4536812,143.776226 L44.684565,143.776226 L44.684565,155.666262 L40.550037,155.666262 L40.550037,128.125444 L44.684565,128.125444 Z M104.54171,126.909849 L104.54171,155.666262 L100.141662,155.666262 L100.141662,140.243404 L100.142823,140.1558 C100.147468,139.979043 100.166046,139.792983 100.198559,139.597619 L100.215944,139.488933 L100.215944,139.488933 L100.230168,139.390799 L100.230168,139.390799 L100.241232,139.303217 C100.242812,139.2895 100.244261,139.276222 100.245578,139.263383 L100.2519,139.191629 C100.254271,139.158391 100.255456,139.129109 100.255456,139.103784 L100.115359,139.294111 L100.115359,139.294111 L100.018189,139.428943 L100.018189,139.428943 L99.8343858,139.688054 L99.8343858,139.688054 L99.5311683,140.123032 L99.5311683,140.123032 L99.3338624,140.409423 L99.3338624,140.409423 L98.8137329,141.168573 L98.8137329,141.168573 L98.3274491,141.87377 L98.3274491,141.87377 L97.6919332,142.78941 L97.6919332,142.78941 L96.9328492,143.879043 L96.9328492,143.879043 L96.1980449,144.937665 L96.1980449,144.937665 L93.9090504,148.248048 L93.9090504,148.248048 L91.6581769,151.500738 L91.6581769,151.500738 L91.4269112,151.837851 L91.4269112,151.837851 L91.0837864,152.343921 L91.0837864,152.343921 L90.8819369,152.647989 L90.8819369,152.647989 L90.7725937,152.817212 L90.7725937,152.817212 L90.701495,152.724492 L90.701495,152.724492 L90.5328442,152.499098 L90.5328442,152.499098 L90.3146245,152.201999 L90.3146245,152.201999 L90.0468361,151.833196 L90.0468361,151.833196 L88.4393892,149.601284 L88.4393892,149.601284 L87.5851175,148.417874 L87.5851175,148.417874 L86.9216538,147.49359 L86.9216538,147.49359 L86.4099159,146.776776 L86.4099159,146.776776 L85.8860578,146.039732 L85.8860578,146.039732 L85.2528091,145.14529 L85.2528091,145.14529 L84.381903,143.911461 L84.381903,143.911461 L82.9077921,141.815557 L82.9077921,141.815557 L82.2356468,140.866634 L82.2356468,140.866634 L81.6608971,140.060603 L81.6608971,140.060603 L81.4501422,139.76023 L81.4501422,139.76023 L81.3107404,139.557402 L81.3107404,139.557402 L81.2507736,139.468478 L81.2507736,139.468478 L81.1771621,139.357114 L81.1771621,139.357114 L81.1098091,139.251666 L81.1098091,139.251666 L81.0740012,139.193037 L81.0740012,139.193037 L81.0454685,139.143743 C81.0371702,139.128867 81.0300844,139.115548 81.0242111,139.103784 L81.0246062,139.130428 L81.0246062,139.130428 L81.0277672,139.191629 L81.0277672,139.191629 L81.0340891,139.263383 L81.0340891,139.263383 L81.043572,139.345689 C81.0454159,139.360286 81.0473914,139.375323 81.0494988,139.390799 L81.063723,139.488933 L81.063723,139.488933 L81.0811083,139.597619 C81.113621,139.792983 81.1321996,139.979043 81.1368443,140.1558 L81.1380055,140.243404 L81.1380055,155.666262 L77.0034775,155.666262 L77.0034775,126.909849 L77.0911688,127.044061 L77.0911688,127.044061 L77.1981819,127.203576 L77.1981819,127.203576 L77.39493,127.490295 L77.39493,127.490295 L77.7248872,127.961152 L77.7248872,127.961152 L78.0769994,128.456182 L78.0769994,128.456182 L78.4259068,128.942171 L78.4259068,128.942171 L82.0946366,134.037793 L82.0946366,134.037793 L88.3562089,142.763132 L88.3562089,142.763132 L90.0661707,145.130157 L90.0661707,145.130157 L90.7089153,146.008052 L90.7089153,146.008052 L90.7725937,146.093454 L90.7725937,146.093454 L90.8026389,146.045339 L90.8026389,146.045339 L90.8289587,146.005026 L90.8289587,146.005026 L90.8966934,145.904631 L90.8966934,145.904631 L91.0096652,145.742071 L91.0096652,145.742071 L91.2558326,145.396308 L91.2558326,145.396308 L91.9969796,144.370413 L91.9969796,144.370413 L92.6623282,143.440887 L92.6623282,143.440887 L93.5058239,142.257143 L93.5058239,142.257143 L94.289682,141.163542 L94.289682,141.163542 L95.020916,140.148435 L95.020916,140.148435 L97.3537002,136.919512 C97.9909485,136.038206 98.6201049,135.160952 99.2411691,134.287749 L100.13329,133.031078 L100.13329,133.031078 L100.411849,132.640521 L100.411849,132.640521 L100.819686,132.071378 L100.819686,132.071378 L101.08491,131.703079 L101.08491,131.703079 L101.599355,130.993191 L101.599355,130.993191 L102.152922,130.234267 L102.152922,130.234267 L102.536649,129.704338 L102.536649,129.704338 L102.895159,129.204716 L102.895159,129.204716 L103.064958,128.966269 L103.064958,128.966269 L103.385641,128.512104 L103.385641,128.512104 L103.782769,127.945043 L103.782769,127.945043 L104.042201,127.580177 L104.042201,127.580177 L104.193303,127.371325 L104.193303,127.371325 L104.326921,127.189986 L104.326921,127.189986 L104.415662,127.072038 L104.415662,127.072038 L104.518686,126.938848 L104.518686,126.938848 L104.54171,126.909849 Z M196.301839,128.125444 L196.301839,155.666262 L192.167311,155.666262 L192.167311,128.125444 L196.301839,128.125444 Z M226.686247,128.125444 L226.686247,132.076127 L219.744792,132.076127 L219.744792,155.666262 L215.610264,155.666262 L215.610264,132.076127 L208.820534,132.076127 L208.820534,128.125444 L226.686247,128.125444 Z M235.98077,128.125444 L240.684269,128.125444 L240.755718,128.246199 L240.755718,128.246199 L240.872213,128.44774 L240.872213,128.44774 L241.045353,128.753807 L241.045353,128.753807 L241.123172,128.893077 L241.123172,128.893077 L241.367093,129.334239 L241.367093,129.334239 L241.617294,129.791899 L241.617294,129.791899 L241.898076,130.309716 L241.898076,130.309716 L242.178306,130.829963 L242.178306,130.829963 L242.566657,131.556037 L242.566657,131.556037 L242.971819,132.319151 L242.971819,132.319151 L243.393794,133.119305 L243.393794,133.119305 L243.83258,133.9565 C244.422624,135.085568 245.02145,136.223429 245.629055,137.370084 L246.421022,138.863704 L246.421022,138.863704 L246.820061,139.621171 L246.820061,139.621171 L247.332833,140.602491 L247.332833,140.602491 L247.666326,141.246908 L247.666326,141.246908 L247.853313,141.610948 L248.270559,142.86453 L248.329732,142.742211 C248.406607,142.578105 248.475389,142.409948 248.536079,142.237739 C248.611942,142.022477 248.687805,141.813547 248.763668,141.610948 L249.036564,141.100757 L249.036564,141.100757 L249.324211,140.557855 L249.324211,140.557855 L249.549626,140.129211 L249.549626,140.129211 L249.943758,139.373916 L249.943758,139.373916 L250.275658,138.73288 L250.275658,138.73288 L250.622309,138.059132 L250.622309,138.059132 L252.836781,133.743729 L252.836781,133.743729 L253.158305,133.119305 L253.158305,133.119305 L253.572294,132.319151 L253.572294,132.319151 L254.066138,131.371046 L254.066138,131.371046 L254.4423,130.654232 L254.4423,130.654232 L254.770701,130.032944 L254.770701,130.032944 L255.122715,129.374409 L255.122715,129.374409 L255.384215,128.893077 L255.384215,128.893077 L255.602305,128.500306 L255.602305,128.500306 L255.754687,128.234132 L255.754687,128.234132 L255.818918,128.125444 L260.484486,128.125444 L250.356789,146.587289 L250.356789,155.666262 L246.18433,155.666262 L246.18433,146.587289 L246.112437,146.471478 L246.112437,146.471478 L246.001412,146.285902 L246.001412,146.285902 L245.866876,146.054978 L245.866876,146.054978 L245.639026,145.6555 L245.639026,145.6555 L245.527269,145.457087 L245.527269,145.457087 L245.141215,144.763897 L245.141215,144.763897 L244.414853,143.444752 L244.414853,143.444752 L243.93085,142.5602 L243.93085,142.5602 L242.753388,140.399321 L242.753388,140.399321 L241.862252,138.77245 L241.862252,138.77245 L241.241187,137.643973 L241.241187,137.643973 L240.610682,136.500132 L240.610682,136.500132 L239.85121,135.116971 L239.85121,135.116971 L239.267909,134.049949 L239.267909,134.049949 L238.31843,132.306744 L238.31843,132.306744 L237.596943,130.98864 L237.596943,130.98864 L237.092003,130.072025 L237.092003,130.072025 L236.717037,129.39699 L236.717037,129.39699 L236.390231,128.818076 L236.390231,128.818076 L236.241587,128.559944 L236.241587,128.559944 L236.139601,128.386088 L236.139601,128.386088 L236.052662,128.241255 L236.052662,128.241255 L235.98077,128.125444 Z M14.0725678,131.810215 C12.7070356,131.810215 11.4173663,132.076127 10.20356,132.607949 C8.98975357,133.139772 7.93399489,133.861531 7.03628391,134.773227 C6.13857294,135.684924 5.43051921,136.761231 4.91212273,138.002151 C4.39372625,139.243071 4.13452801,140.559965 4.13452801,141.952834 C4.13452801,143.345703 4.39372625,144.656266 4.91212273,145.884523 C5.43051921,147.11278 6.14489484,148.182757 7.05524964,149.094453 C7.96560443,150.006149 9.02768502,150.727908 10.2414914,151.259731 C11.4552978,151.791554 12.7449671,152.057465 14.1104993,152.057465 C15.4760315,152.057465 16.7593788,151.791554 17.9605414,151.259731 C19.161704,150.727908 20.2111408,150.006149 21.1088517,149.094453 C22.0065627,148.182757 22.7146164,147.11278 23.2330129,145.884523 C23.7514094,144.656266 24.0106076,143.33304 24.0106076,141.914847 C24.0106076,140.521978 23.7514094,139.211415 23.2330129,137.983157 C22.7146164,136.7549 22.0002408,135.684924 21.089886,134.773227 C20.1795312,133.861531 19.1237725,133.139772 17.92261,132.607949 C16.7214474,132.076127 15.4381,131.810215 14.0725678,131.810215 Z M284.873373,126.491988 L284.873373,136.748569 L283.318184,136.748569 L283.318184,131.202418 L283.319369,131.145437 C283.32174,131.088456 283.327667,131.031475 283.337149,130.974494 C283.347264,130.913714 283.353334,130.861038 283.355357,130.816467 L283.356115,130.784557 L279.942285,135.722911 L279.910217,135.671746 L279.910217,135.671746 L279.882386,135.629488 L279.882386,135.629488 L279.811236,135.525416 L279.811236,135.525416 L279.693261,135.35866 L279.693261,135.35866 L279.473893,135.056756 L279.473893,135.056756 L279.278484,134.792221 C278.952555,134.353256 278.616635,133.884277 278.270725,133.385283 L277.794606,132.69589 L277.794606,132.69589 L277.462327,132.218959 L277.462327,132.218959 L277.143702,131.76596 L277.143702,131.76596 L276.903898,131.426466 L276.903898,131.426466 L276.760325,131.219086 L276.760325,131.219086 L276.64699,131.050469 L276.64699,131.050469 L276.610123,130.993875 L276.610123,130.993875 L276.563894,130.920614 L276.563894,130.920614 L276.539122,130.879526 L276.539122,130.879526 L276.519189,130.844639 L276.519189,130.844639 L276.504094,130.815955 L276.504094,130.815955 L276.493837,130.793473 C276.492531,130.790242 276.491426,130.787271 276.490523,130.784557 C276.490523,130.825077 276.494569,130.873701 276.502661,130.930429 L276.509488,130.974494 C276.518971,131.031475 276.524898,131.088456 276.527269,131.145437 L276.528454,131.202418 L276.528454,136.748569 L275.049128,136.748569 L275.049128,126.491988 L275.077129,126.537165 L275.077129,126.537165 L275.112901,126.592009 L275.112901,126.592009 L275.17981,126.690201 L275.17981,126.690201 L275.233251,126.76628 L275.233251,126.76628 L275.326666,126.896324 L275.326666,126.896324 L275.517695,127.155535 L275.517695,127.155535 L275.696596,127.39577 L275.696596,127.39577 L275.837259,127.58729 L275.837259,127.58729 L275.98319,127.788306 L275.98319,127.788306 L276.134389,127.998819 L276.134389,127.998819 L276.371065,128.332396 L276.371065,128.332396 L276.78976,128.927399 L276.78976,128.927399 L277.265542,129.598977 L277.265542,129.598977 L277.885557,130.467996 L277.885557,130.467996 L278.466236,131.276986 L278.466236,131.276986 L278.892848,131.869307 L278.892848,131.869307 L279.822396,133.166184 L279.822396,133.166184 L279.942285,133.329709 L284.873373,126.491988 Z M273.304281,126.909849 L273.304281,128.31538 L270.800805,128.31538 L270.800805,136.748569 L269.35941,136.748569 L269.35941,128.31538 L266.931797,128.31538 L266.931797,126.909849 L273.304281,126.909849 Z" id="Shape" fill="#637470" fill-rule="nonzero"></path>
        </g>
    </g>
</svg>